<svg width="16" height="16" viewBox="0 0 16 16" fill="none" xmlns="http://www.w3.org/2000/svg">
<path d="M1.66669 7.75626L1.20245 7.57057C1.15477 7.68977 1.15477 7.82275 1.20245 7.94196L1.66669 7.75626ZM14.3334 7.75626L14.7976 7.94196C14.8453 7.82275 14.8453 7.68977 14.7976 7.57057L14.3334 7.75626ZM8.00001 11.7801C5.92409 11.7801 4.4659 10.7474 3.50857 9.68368C3.02955 9.15144 2.6823 8.61751 2.45512 8.2166C2.34181 8.01665 2.25915 7.85116 2.20554 7.73744C2.17875 7.68061 2.15927 7.63683 2.14689 7.60826C2.1407 7.59399 2.1363 7.58352 2.13364 7.57714C2.13232 7.57396 2.13143 7.57179 2.13098 7.57068C2.13075 7.57013 2.13063 7.56984 2.13063 7.56982C2.13062 7.56981 2.13064 7.56987 2.13069 7.56999C2.13072 7.57005 2.13078 7.5702 2.13079 7.57023C2.13085 7.57039 2.13093 7.57057 1.66669 7.75626C1.20245 7.94196 1.20253 7.94217 1.20263 7.9424C1.20267 7.9425 1.20277 7.94275 1.20285 7.94295C1.20301 7.94335 1.20319 7.94381 1.20341 7.94435C1.20385 7.94543 1.20439 7.94678 1.20505 7.9484C1.20638 7.95164 1.20815 7.95596 1.21039 7.96133C1.21486 7.97208 1.22116 7.98701 1.22933 8.00587C1.24567 8.04357 1.26949 8.09698 1.30101 8.16385C1.36403 8.29752 1.45808 8.48546 1.5851 8.70961C1.83857 9.15692 2.22643 9.75394 2.76527 10.3526C3.84365 11.5508 5.55211 12.7801 8.00001 12.7801V11.7801ZM1.66669 7.75626C2.13093 7.94196 2.13085 7.94213 2.13079 7.9423C2.13078 7.94233 2.13072 7.94247 2.13069 7.94253C2.13064 7.94266 2.13062 7.94271 2.13063 7.9427C2.13063 7.94268 2.13075 7.94239 2.13098 7.94184C2.13143 7.94073 2.13232 7.93857 2.13364 7.93538C2.1363 7.929 2.1407 7.91854 2.14689 7.90426C2.15927 7.87569 2.17875 7.83191 2.20554 7.77509C2.25915 7.66136 2.34181 7.49588 2.45512 7.29592C2.6823 6.89502 3.02955 6.36108 3.50857 5.82884C4.4659 4.76513 5.92409 3.73245 8.00001 3.73245V2.73245C5.55211 2.73245 3.84365 3.96167 2.76527 5.15988C2.22643 5.75859 1.83857 6.3556 1.5851 6.80291C1.45808 7.02706 1.36403 7.215 1.30101 7.34867C1.26949 7.41554 1.24567 7.46895 1.22933 7.50665C1.22116 7.52551 1.21486 7.54045 1.21039 7.55119C1.20815 7.55656 1.20638 7.56088 1.20505 7.56413C1.20439 7.56575 1.20385 7.5671 1.20341 7.56817C1.20319 7.56871 1.20301 7.56918 1.20285 7.56958C1.20277 7.56978 1.20267 7.57002 1.20263 7.57012C1.20253 7.57035 1.20245 7.57057 1.66669 7.75626ZM8.00001 3.73245C10.0759 3.73245 11.5341 4.76514 12.4915 5.82884C12.9705 6.36108 13.3177 6.89502 13.5449 7.29592C13.6582 7.49588 13.7409 7.66136 13.7945 7.77509C13.8213 7.83191 13.8408 7.8757 13.8531 7.90426C13.8593 7.91854 13.8637 7.92901 13.8664 7.93538C13.8677 7.93857 13.8686 7.94073 13.8691 7.94184C13.8693 7.9424 13.8694 7.94269 13.8694 7.94271C13.8694 7.94272 13.8694 7.94266 13.8693 7.94254C13.8693 7.94247 13.8693 7.94233 13.8693 7.9423C13.8692 7.94214 13.8691 7.94196 14.3334 7.75626C14.7976 7.57057 14.7975 7.57035 14.7974 7.57012C14.7974 7.57002 14.7973 7.56977 14.7972 7.56957C14.797 7.56918 14.7968 7.56871 14.7966 7.56817C14.7962 7.56709 14.7956 7.56574 14.795 7.56412C14.7937 7.56088 14.7919 7.55656 14.7896 7.55119C14.7852 7.54045 14.7789 7.52551 14.7707 7.50665C14.7544 7.46895 14.7306 7.41554 14.699 7.34867C14.636 7.215 14.542 7.02706 14.4149 6.80291C14.1615 6.3556 13.7736 5.75859 13.2348 5.15987C12.1564 3.96167 10.4479 2.73245 8.00001 2.73245V3.73245ZM14.3334 7.75626C13.8691 7.57057 13.8692 7.57039 13.8693 7.57023C13.8693 7.57019 13.8693 7.57005 13.8693 7.56999C13.8694 7.56986 13.8694 7.56981 13.8694 7.56982C13.8694 7.56984 13.8693 7.57013 13.8691 7.57068C13.8686 7.57179 13.8677 7.57395 13.8664 7.57714C13.8637 7.58352 13.8593 7.59398 13.8531 7.60826C13.8408 7.63683 13.8213 7.68061 13.7945 7.73743C13.7409 7.85116 13.6582 8.01664 13.5449 8.2166C13.3177 8.61751 12.9705 9.15144 12.4915 9.68368C11.5341 10.7474 10.0759 11.7801 8.00001 11.7801V12.7801C10.4479 12.7801 12.1564 11.5508 13.2348 10.3526C13.7736 9.75394 14.1615 9.15692 14.4149 8.70961C14.542 8.48546 14.636 8.29752 14.699 8.16386C14.7306 8.09698 14.7544 8.04357 14.7707 8.00587C14.7789 7.98702 14.7852 7.97208 14.7896 7.96134C14.7919 7.95597 14.7937 7.95164 14.795 7.9484C14.7956 7.94678 14.7962 7.94543 14.7966 7.94436C14.7968 7.94382 14.797 7.94335 14.7972 7.94295C14.7973 7.94275 14.7974 7.9425 14.7974 7.9424C14.7975 7.94217 14.7976 7.94196 14.3334 7.75626ZM8.00002 9.06579C7.27679 9.06579 6.6905 8.47949 6.6905 7.75626H5.6905C5.6905 9.03178 6.72451 10.0658 8.00002 10.0658V9.06579ZM9.30954 7.75626C9.30954 8.47949 8.72325 9.06579 8.00002 9.06579V10.0658C9.27553 10.0658 10.3095 9.03178 10.3095 7.75626H9.30954ZM8.00002 6.44674C8.72325 6.44674 9.30954 7.03303 9.30954 7.75626H10.3095C10.3095 6.48075 9.27553 5.44674 8.00002 5.44674V6.44674ZM8.00002 5.44674C6.72451 5.44674 5.6905 6.48075 5.6905 7.75626H6.6905C6.6905 7.03303 7.27679 6.44674 8.00002 6.44674V5.44674Z" fill="#172765"/>
<line x1="3.80017" y1="11.9966" x2="13.13" y2="2.66672" stroke="white" stroke-width="2" stroke-linecap="round" stroke-linejoin="round"/>
<line x1="3.41309" y1="12.5251" x2="12.706" y2="3.23224" stroke="#172765" stroke-linecap="round" stroke-linejoin="round"/>
</svg>
