<svg width="22" height="16" viewBox="0 0 22 16" fill="none" xmlns="http://www.w3.org/2000/svg">
<path d="M1.5 7.63435L0.803642 7.35581C0.732119 7.53461 0.732119 7.73408 0.803642 7.91289L1.5 7.63435ZM20.5 7.63435L21.1964 7.91289C21.2679 7.73408 21.2679 7.53461 21.1964 7.3558L20.5 7.63435ZM11 13.6701C7.88611 13.6701 5.69881 12.121 4.26282 10.5255C3.5443 9.72712 3.02342 8.92622 2.68265 8.32486C2.51269 8.02492 2.3887 7.7767 2.30828 7.60611C2.26809 7.52087 2.23887 7.4552 2.22031 7.41235C2.21103 7.39093 2.20441 7.37524 2.20043 7.36567C2.19844 7.36089 2.19711 7.35764 2.19643 7.35598C2.1961 7.35515 2.19592 7.35471 2.19591 7.35468C2.1959 7.35467 2.19594 7.35475 2.19601 7.35494C2.19605 7.35503 2.19614 7.35525 2.19615 7.3553C2.19625 7.35554 2.19636 7.35581 1.5 7.63435C0.803642 7.91289 0.80377 7.91321 0.803908 7.91355C0.803968 7.9137 0.804117 7.91407 0.804238 7.91437C0.804478 7.91497 0.804762 7.91568 0.805087 7.91648C0.805739 7.9181 0.80656 7.92012 0.807552 7.92255C0.809535 7.92741 0.8122 7.9339 0.815553 7.94196C0.822258 7.95807 0.831716 7.98048 0.843972 8.00876C0.868477 8.06531 0.904198 8.14542 0.951487 8.24573C1.04601 8.44624 1.18709 8.72815 1.37761 9.06437C1.75782 9.73533 2.33962 10.6309 3.14788 11.5289C4.76544 13.3262 7.32814 15.1701 11 15.1701V13.6701ZM1.5 7.63435C2.19636 7.91289 2.19625 7.91316 2.19615 7.9134C2.19614 7.91344 2.19605 7.91366 2.19601 7.91375C2.19594 7.91394 2.1959 7.91403 2.19591 7.91401C2.19592 7.91398 2.1961 7.91355 2.19643 7.91271C2.19711 7.91105 2.19844 7.90781 2.20043 7.90302C2.20441 7.89346 2.21103 7.87776 2.22031 7.85634C2.23887 7.8135 2.26809 7.74782 2.30828 7.66259C2.3887 7.49199 2.51269 7.24377 2.68265 6.94384C3.02342 6.34248 3.5443 5.54157 4.26282 4.74321C5.69881 3.14766 7.88611 1.59863 11 1.59863V0.0986328C7.32814 0.0986328 4.76544 1.94247 3.14788 3.73977C2.33962 4.63784 1.75782 5.53336 1.37761 6.20432C1.18709 6.54055 1.04601 6.82246 0.951487 7.02296C0.904198 7.12327 0.868477 7.20338 0.843972 7.25994C0.831716 7.28822 0.822258 7.31063 0.815553 7.32674C0.8122 7.3348 0.809535 7.34128 0.807552 7.34614C0.80656 7.34857 0.805739 7.3506 0.805087 7.35221C0.804762 7.35302 0.804478 7.35372 0.804238 7.35432C0.804117 7.35462 0.803968 7.35499 0.803908 7.35514C0.80377 7.35549 0.803642 7.35581 1.5 7.63435ZM11 1.59863C14.1139 1.59863 16.3012 3.14766 17.7372 4.74321C18.4557 5.54158 18.9766 6.34248 19.3173 6.94384C19.4873 7.24378 19.6113 7.492 19.6917 7.66259C19.7319 7.74783 19.7611 7.8135 19.7797 7.85635C19.789 7.87777 19.7956 7.89346 19.7996 7.90303C19.8016 7.90781 19.8029 7.91106 19.8036 7.91272C19.8039 7.91355 19.8041 7.91398 19.8041 7.91401C19.8041 7.91403 19.8041 7.91395 19.804 7.91376C19.804 7.91367 19.8039 7.91345 19.8038 7.9134C19.8037 7.91316 19.8036 7.91289 20.5 7.63435C21.1964 7.3558 21.1962 7.35548 21.1961 7.35514C21.196 7.35499 21.1959 7.35462 21.1958 7.35432C21.1955 7.35372 21.1952 7.35301 21.1949 7.35221C21.1943 7.3506 21.1934 7.34857 21.1924 7.34614C21.1905 7.34128 21.1878 7.33479 21.1844 7.32674C21.1777 7.31062 21.1683 7.28822 21.156 7.25993C21.1315 7.20338 21.0958 7.12327 21.0485 7.02296C20.954 6.82246 20.8129 6.54054 20.6224 6.20432C20.2422 5.53336 19.6604 4.63783 18.8521 3.73977C17.2345 1.94247 14.6718 0.0986328 11 0.0986328V1.59863ZM20.5 7.63435C19.8036 7.3558 19.8037 7.35554 19.8038 7.35529C19.8039 7.35525 19.804 7.35503 19.804 7.35494C19.8041 7.35475 19.8041 7.35466 19.8041 7.35468C19.8041 7.35471 19.8039 7.35515 19.8036 7.35598C19.8029 7.35764 19.8016 7.36089 19.7996 7.36567C19.7956 7.37523 19.789 7.39093 19.7797 7.41235C19.7611 7.45519 19.7319 7.52087 19.6917 7.6061C19.6113 7.7767 19.4873 8.02492 19.3173 8.32485C18.9766 8.92622 18.4557 9.72712 17.7372 10.5255C16.3012 12.121 14.1139 13.6701 11 13.6701V15.1701C14.6718 15.1701 17.2345 13.3262 18.8521 11.5289C19.6604 10.6309 20.2422 9.73534 20.6224 9.06438C20.8129 8.72815 20.954 8.44624 21.0485 8.24574C21.0958 8.14543 21.1315 8.06531 21.156 8.00876C21.1683 7.98048 21.1777 7.95807 21.1844 7.94196C21.1878 7.9339 21.1905 7.92742 21.1924 7.92256C21.1934 7.92012 21.1943 7.9181 21.1949 7.91649C21.1952 7.91568 21.1955 7.91498 21.1958 7.91438C21.1959 7.91408 21.196 7.91371 21.1961 7.91356C21.1962 7.91321 21.1964 7.91289 20.5 7.63435ZM11 9.59863C9.91515 9.59863 9.03571 8.71919 9.03571 7.63435H7.53571C7.53571 9.54762 9.08673 11.0986 11 11.0986V9.59863ZM12.9643 7.63435C12.9643 8.71919 12.0848 9.59863 11 9.59863V11.0986C12.9133 11.0986 14.4643 9.54762 14.4643 7.63435H12.9643ZM11 5.67006C12.0848 5.67006 12.9643 6.5495 12.9643 7.63435H14.4643C14.4643 5.72108 12.9133 4.17006 11 4.17006V5.67006ZM11 4.17006C9.08673 4.17006 7.53571 5.72108 7.53571 7.63435H9.03571C9.03571 6.5495 9.91515 5.67006 11 5.67006V4.17006Z" fill="#172765"/>
</svg>
